<?xml version="1.0" encoding="UTF-8" standalone="no"?>
<svg width="857px" height="223px" viewBox="0 0 857 223" version="1.1" xmlns="http://www.w3.org/2000/svg" xmlns:xlink="http://www.w3.org/1999/xlink">
    <!-- Generator: Sketch 3.8.3 (29802) - http://www.bohemiancoding.com/sketch -->
    <title>Slice 1</title>
    <desc>Created with Sketch.</desc>
    <defs></defs>
    <g id="Page-1" stroke="none" stroke-width="1" fill="none" fill-rule="evenodd">
        <g id="golden-ratio-math" transform="translate(0.000000, 22.000000)">
            <g id="layer1" transform="translate(0.571440, 0.780640)">
                <path d="M7.16629,47.65625 C7.70059,58.46327 18.29367,66.78507 41.66629,66.53125 L98.32254,66.53125 C119.39134,66.53125 122.96584,74.37293 125.63504,80.28125 C128.30424,74.37293 131.87874,66.53125 152.94754,66.53125 L209.60379,66.53125 C232.97641,66.78507 243.56949,58.46327 244.10379,47.65625 C240.25674,55.01886 235.59313,63.65625 214.32254,63.65625 L150.69754,63.65625 C133.80045,63.65626 128.01615,70.31507 125.63504,73.3125 C123.25393,70.31507 117.46963,63.65626 100.57254,63.65625 L36.94754,63.65625 C15.67695,63.65625 11.01335,55.01886 7.16629,47.65625 L7.16629,47.65625 Z" id="path5937" fill="#007E00"></path>
                <path d="M6.64731,31.71936 L5.77231,32.62561 L1.80356,36.59436 L0.92856,37.46936 L1.80356,38.37561 L5.77231,42.34436 L6.64731,43.21936 L7.55356,42.34436 L11.17856,38.71936 L149.33481,38.71936 L152.99106,42.34436 L153.86606,43.21936 L153.86606,39.68811 L151.67856,37.46936 L153.86606,35.28186 L153.86606,31.71936 L152.99106,32.62561 L149.33481,36.28186 L149.33481,36.21936 L11.14731,36.21936 L7.55356,32.62561 L6.64731,31.71936 L6.64731,31.71936 Z M6.64731,35.28186 L8.86606,37.46936 L6.64731,39.68811 L4.45981,37.46936 L6.64731,35.28186 L6.64731,35.28186 Z" id="rect5942" fill="#0000FF"></path>
                <path d="M153.86606,31.71936 L153.86606,35.28186 L156.08481,37.46936 L153.86606,39.68811 L153.86606,43.21936 L154.77231,42.34436 L158.39731,38.71936 L239.67856,38.71936 L243.33481,42.34436 L244.20981,43.21936 L245.08481,42.34436 L249.05356,38.37561 L249.95981,37.46936 L249.05356,36.59436 L245.08481,32.62561 L244.20981,31.71936 L243.33481,32.62561 L239.70981,36.21936 L158.36606,36.21936 L154.77231,32.62561 L153.86606,31.71936 L153.86606,31.71936 Z M244.20981,35.28186 L246.42856,37.46936 L244.20981,39.68811 L241.99106,37.46936 L244.20981,35.28186 L244.20981,35.28186 Z" id="rect5946" fill="#FF0000"></path>
                <path d="M84.78441,10.28985 L86.46242,9.08606 L87.62973,9.37789 L84.94856,20.94155 C84.68104,22.09671 84.54729,22.99651 84.5473,23.64096 C84.54729,24.12734 84.62632,24.47997 84.78441,24.69884 C84.94247,24.91771 85.19174,25.02714 85.53222,25.02714 C85.89699,25.02714 86.28609,24.87819 86.69953,24.58028 C87.11293,24.28238 87.69659,23.71392 88.4505,22.87491 L89.49013,23.89631 C88.39576,25.06362 87.46252,25.89351 86.69041,26.38596 C85.91827,26.87842 85.0823,27.12465 84.18252,27.12465 C83.42861,27.12465 82.82672,26.87538 82.37683,26.37684 C81.92692,25.87831 81.70197,25.21561 81.70198,24.38877 C81.70197,23.72 81.8418,23.00867 82.12148,22.25478 L81.88437,22.18182 C80.71705,23.88415 79.61054,25.1305 78.56484,25.92086 C77.51911,26.71123 76.4126,27.10641 75.2453,27.10641 C73.90775,27.10641 72.87115,26.60179 72.13551,25.59256 C71.39986,24.58332 71.03203,23.16674 71.03203,21.34282 C71.03203,19.25139 71.44242,17.24204 72.26318,15.31475 C73.08394,13.38749 74.21173,11.86755 75.64656,10.75495 C77.08137,9.64237 78.68034,9.08608 80.44348,9.08606 C81.23383,9.08608 81.97252,9.17423 82.65954,9.35053 C83.34654,9.52686 84.05483,9.83996 84.78441,10.28985 L84.78441,10.28985 L84.78441,10.28985 Z M83.17936,15.72514 C83.28878,15.22661 83.36174,14.79495 83.39823,14.43015 C83.43469,14.06538 83.45293,13.6702 83.45295,13.2446 C83.45293,12.30834 83.2523,11.62133 82.85105,11.18357 C82.44978,10.74584 81.76885,10.52697 80.80826,10.52696 C79.55582,10.52697 78.43107,11.03159 77.434,12.04081 C76.43692,13.05006 75.65871,14.4028 75.09938,16.09904 C74.54004,17.7953 74.26037,19.4885 74.26038,21.17866 C74.26037,22.44326 74.43365,23.38865 74.7802,24.01486 C75.12674,24.64108 75.70735,24.95419 76.52204,24.95418 C77.32456,24.95419 78.11189,24.60764 78.88402,23.91455 C79.65614,23.22146 80.45258,22.2335 81.27336,20.95067 C82.09411,19.66786 82.67473,18.18744 83.01521,16.50942 L83.17936,15.72514 L83.17936,15.72514 Z" id="text5964" fill="#0000FF"></path>
                <path d="M193.6201,25.9391 L191.94209,27.12465 L190.77478,26.83282 L195.49874,5.98539 C195.7784,4.74514 195.91824,3.84534 195.91824,3.28598 C195.91824,2.77531 195.7632,2.4166 195.45314,2.20987 C195.14307,2.00318 194.58677,1.88767 193.78425,1.86332 L194.00312,0.91488 L198.61765,0.75073 L199.67552,0.75073 L196.46542,13.51819 L196.70253,13.59115 C197.88199,12.01043 198.9885,10.86744 200.02207,10.16217 C201.05561,9.45694 202.08917,9.10431 203.12274,9.1043 C204.44811,9.10431 205.47862,9.60893 206.21429,10.61815 C206.94992,11.62741 207.31774,13.05006 207.31776,14.88613 C207.31774,16.89246 206.91344,18.86533 206.10485,20.80476 C205.29623,22.7442 204.17452,24.28238 202.73971,25.41928 C201.30488,26.5562 199.69983,27.12465 197.92456,27.12465 C196.30734,27.12465 194.87252,26.72947 193.6201,25.9391 L193.6201,25.9391 L193.6201,25.9391 Z M195.22515,20.48557 C195.04275,21.33674 194.95156,22.16359 194.95156,22.96611 C194.95156,23.92671 195.16131,24.6198 195.58082,25.04538 C196.00031,25.47096 196.69644,25.68375 197.66921,25.68375 C198.16774,25.68375 198.64196,25.60168 199.09187,25.43752 C199.54176,25.27337 200.00078,25.00282 200.46893,24.62588 C200.93706,24.24894 201.38088,23.75344 201.80039,23.13938 C202.21988,22.52533 202.60595,21.7684 202.95858,20.8686 C203.3112,19.9688 203.58478,19.00516 203.77935,17.97768 C203.97389,16.95021 204.07116,15.96834 204.07118,15.03205 C204.07116,13.76747 203.89181,12.81903 203.53312,12.18673 C203.1744,11.55445 202.59987,11.2383 201.80951,11.23829 C201.22585,11.2383 200.65131,11.42373 200.08591,11.79458 C199.52048,12.16546 198.89123,12.77951 198.19815,13.63674 C197.50505,14.494 196.93963,15.37252 196.5019,16.27231 C196.06415,17.17212 195.69329,18.32119 195.38931,19.71953 L195.22515,20.48557 L195.22515,20.48557 Z" id="text5968" fill="#FF0000"></path>
                <path d="M106.86688,90.3659 L108.54489,89.16211 L109.7122,89.45394 L107.03103,101.0176 C106.76351,102.17276 106.62975,103.07256 106.62977,103.71701 C106.62975,104.20339 106.70879,104.55602 106.86688,104.77489 C107.02493,104.99376 107.2742,105.10319 107.61468,105.10319 C107.97945,105.10319 108.36856,104.95424 108.782,104.65633 C109.1954,104.35843 109.77905,103.78997 110.53296,102.95096 L111.5726,103.97236 C110.47822,105.13967 109.54498,105.96956 108.77288,106.46201 C108.00073,106.95447 107.16477,107.2007 106.26498,107.2007 C105.51108,107.2007 104.90919,106.95143 104.4593,106.45289 C104.00938,105.95436 103.78443,105.29166 103.78445,104.46482 C103.78443,103.79605 103.92427,103.08472 104.20395,102.33083 L103.96684,102.25787 C102.79952,103.9602 101.69301,105.20655 100.6473,105.99691 C99.60158,106.78728 98.49506,107.18246 97.32776,107.18246 C95.99021,107.18246 94.95362,106.67784 94.21797,105.66861 C93.48232,104.65937 93.1145,103.24279 93.1145,101.41887 C93.1145,99.32744 93.52488,97.31809 94.34565,95.3908 C95.16641,93.46354 96.2942,91.9436 97.72902,90.831 C99.16384,89.71842 100.76281,89.16213 102.52594,89.16211 C103.3163,89.16213 104.05498,89.25028 104.74201,89.42658 C105.429,89.60291 106.13729,89.91601 106.86688,90.3659 L106.86688,90.3659 L106.86688,90.3659 Z M105.26182,95.80119 C105.37125,95.30266 105.4442,94.871 105.4807,94.5062 C105.51716,94.14143 105.5354,93.74625 105.53541,93.32065 C105.5354,92.38439 105.33477,91.69738 104.93352,91.25962 C104.53224,90.82189 103.85131,90.60302 102.89073,90.60301 C101.63829,90.60302 100.51354,91.10764 99.51647,92.11686 C98.51938,93.12611 97.74118,94.47885 97.18185,96.17509 C96.62251,97.87135 96.34284,99.56455 96.34284,101.25471 C96.34284,102.51931 96.51611,103.4647 96.86266,104.09091 C97.2092,104.71713 97.78982,105.03024 98.60451,105.03023 C99.40702,105.03024 100.19435,104.68369 100.96649,103.9906 C101.7386,103.29751 102.53505,102.30955 103.35583,101.02672 C104.17658,99.74391 104.75719,98.26349 105.09767,96.58547 L105.26182,95.80119 L105.26182,95.80119 Z M127.24009,97.44272 L127.24009,107.94851 L124.65012,107.94851 L124.65012,97.44272 L114.70974,97.44272 L114.70974,95.0169 L124.65012,95.0169 L124.65012,84.5111 L127.24009,84.5111 L127.24009,95.0169 L137.18047,95.0169 L137.18047,97.44272 L127.24009,97.44272 L127.24009,97.44272 Z M144.45792,106.01515 L142.77991,107.2007 L141.6126,106.90887 L146.33656,86.06144 C146.61623,84.82119 146.75606,83.92139 146.75607,83.36203 C146.75606,82.85136 146.60103,82.49265 146.29097,82.28592 C145.98089,82.07923 145.4246,81.96372 144.62208,81.93937 L144.84095,80.99093 L149.45547,80.82678 L150.51335,80.82678 L147.30324,93.59424 L147.54035,93.6672 C148.71981,92.08648 149.82633,90.94349 150.85989,90.23822 C151.89344,89.53299 152.92699,89.18036 153.96056,89.18035 C155.28593,89.18036 156.31644,89.68498 157.05211,90.6942 C157.78774,91.70345 158.15556,93.12611 158.15558,94.96218 C158.15556,96.96851 157.75126,98.94138 156.94267,100.88081 C156.13405,102.82025 155.01234,104.35843 153.57754,105.49533 C152.14271,106.63225 150.53766,107.2007 148.76238,107.2007 C147.14516,107.2007 145.71034,106.80552 144.45792,106.01515 L144.45792,106.01515 L144.45792,106.01515 Z M146.06298,100.56162 C145.88058,101.41279 145.78938,102.23964 145.78939,103.04216 C145.78938,104.00276 145.99913,104.69585 146.41864,105.12143 C146.83814,105.54701 147.53427,105.7598 148.50703,105.7598 C149.00556,105.7598 149.47978,105.67773 149.92969,105.51357 C150.37958,105.34942 150.8386,105.07887 151.30675,104.70193 C151.77488,104.32499 152.2187,103.82949 152.63822,103.21543 C153.05771,102.60138 153.44377,101.84445 153.79641,100.94465 C154.14902,100.04485 154.42261,99.08121 154.61717,98.05373 C154.81171,97.02626 154.90899,96.04439 154.909,95.1081 C154.90899,93.84352 154.72963,92.89508 154.37094,92.26278 C154.01222,91.6305 153.43769,91.31435 152.64734,91.31434 C152.06367,91.31435 151.48913,91.49978 150.92373,91.87063 C150.3583,92.24151 149.72905,92.85556 149.03597,93.71279 C148.34287,94.57005 147.77745,95.44857 147.33972,96.34836 C146.90197,97.24817 146.53111,98.39724 146.22713,99.79558 L146.06298,100.56162 L146.06298,100.56162 Z" id="text5972" fill="#007E00"></path>
            </g>
        </g>
        <text id="(a-+-b)-is-to-a-as-a" font-family="SourceSansPro-It, Source Sans Pro" font-size="24" font-style="italic" font-weight="normal">
            <tspan x="8.284" y="177" fill="#007E00">(a + b)</tspan>
            <tspan x="68.788" y="177" font-family="SourceSansPro-Regular, Source Sans Pro" fill="#000000"> is to </tspan>
            <tspan x="120.412" y="177" fill="#0000FF">a</tspan>
            <tspan x="133.3" y="177" font-family="SourceSansPro-Regular, Source Sans Pro" fill="#000000"> as </tspan>
            <tspan x="165.34" y="177" fill="#0000FF">a</tspan>
            <tspan x="178.228" y="177" font-family="SourceSansPro-Regular, Source Sans Pro" fill="#000000"> is to </tspan>
            <tspan x="229.852" y="177" fill="#FF0000">b</tspan>
        </text>
        <path d="M304,1.5 L304,221.727158" id="Line" stroke="#070707" stroke-width="2" stroke-linecap="square"></path>
        <text id="φ-=" font-family="LucidaGrande, Lucida Grande" font-size="36" font-weight="normal" fill="#000000">
            <tspan x="417.5" y="112">φ</tspan>
            <tspan x="446.890625" y="112" font-family="SourceSansPro-It, Source Sans Pro" font-style="italic"> =</tspan>
        </text>
        <text id="--=-1.6180…" font-family="SourceSansPro-It, Source Sans Pro" font-size="36" font-style="italic" font-weight="normal" fill="#000000">
            <tspan x="681" y="112">  = 1.6180…</tspan>
        </text>
        <g id="Group" transform="translate(488.000000, 52.000000)">
            <text id="a-+-b" font-family="SourceSansPro-It, Source Sans Pro" font-size="36" font-style="italic" font-weight="normal" fill="#007E00">
                <tspan x="1.634" y="35">a + b</tspan>
            </text>
            <text id="" font-family="SourceSansPro-It, Source Sans Pro" font-size="36" font-style="italic" font-weight="normal" fill="#0000FF">
                <tspan x="27.334" y="80">a</tspan>
            </text>
            <path d="M0.5,48.5 L72.5,48.5" id="Line" stroke="#000000" stroke-width="3" stroke-linecap="square"></path>
        </g>
        <g id="Group-2" transform="translate(608.000000, 52.000000)">
            <text id="a" font-family="SourceSansPro-It, Source Sans Pro" font-size="36" font-style="italic" font-weight="normal" fill="#0000FF">
                <tspan x="26.834" y="35">a</tspan>
            </text>
            <text id="b" font-family="SourceSansPro-It, Source Sans Pro" font-size="36" font-style="italic" font-weight="normal" fill="#FF0000">
                <tspan x="27.352" y="80">b</tspan>
            </text>
            <path d="M0.5,48.5 L72.5,48.5" id="Line" stroke="#000000" stroke-width="3" stroke-linecap="square"></path>
        </g>
        <text id="=" font-family="SourceSansPro-It, Source Sans Pro" font-size="36" font-style="italic" font-weight="normal" fill="#000000">
            <tspan x="577.5" y="112">=</tspan>
        </text>
    </g>
</svg>